<svg width="1039" height="191" viewBox="0 0 1039 191" fill="none" xmlns="http://www.w3.org/2000/svg">
<path d="M607.722 143.459L618.045 143.677C620.472 147.183 628.74 162.524 629.859 166.253C633.625 159.239 638.125 150.207 642.239 143.569C645.507 143.596 648.774 143.665 652.04 143.776L651.917 184.292C649.159 184.207 646.069 184.267 643.282 184.259C642.994 179.252 643.1 173.316 643.066 168.237C642.992 163.768 643.089 161.315 643.872 156.959C641.648 161.759 635.571 173.791 632.132 178.232C631.383 179.198 630.16 178.956 629.143 178.813C625.739 176.569 619.09 162.595 616.604 158.039C616.77 166.613 616.609 175.689 616.6 184.302L607.954 184.221L607.722 143.459Z" fill="#F37A20"/>
<path d="M552.941 143.494C560.345 143.368 568.56 142.777 575.832 143.859C585.425 145.287 589.158 153.014 586.699 161.966C585.404 166.683 582.533 168.14 578.565 170.427C581.595 174.525 585.363 179.36 588.005 183.624C587.009 184.565 586.916 184.239 585.121 184.323C582.694 184.347 580.328 184.206 577.907 184.091C575.047 179.922 572.078 175.83 569.001 171.819L562.064 171.851L562.106 184.36L552.632 184.341C552.51 170.725 552.613 157.107 552.941 143.494ZM562.289 163.687C566.741 163.498 573.102 164.066 576.485 161.965C583.578 150.223 569.314 151.246 562.243 151.337C562.229 155.395 562.146 159.648 562.289 163.687Z" fill="#F37A20"/>
<path d="M508.605 143.326L516.77 143.403C519.503 148.341 522.124 154.909 524.414 160.163C527.87 168.212 531.484 176.192 535.253 184.099C531.762 184.348 529.086 184.218 525.592 184.082C522.804 178.526 523.86 175.73 516.718 175.577C511.884 175.423 508.466 175.457 503.641 175.738L499.981 184.22L490.308 184.278C496.182 170.527 502.281 156.875 508.605 143.326ZM507.429 167.899L513.717 168.061L518.348 168.22L518.58 167.594C516.416 163.14 514.677 159.197 512.766 154.662C511.09 158.714 508.807 163.831 507.429 167.899Z" fill="#F37A20"/>
<path d="M687.677 143.012C692.488 142.91 701.136 143.366 702.153 149.124C701.646 151.115 700.431 152.149 699.044 153.72C694.853 151.759 683.349 147.353 681.736 154.4C683.753 160.247 696.124 159.284 701.052 164.535C703.045 166.376 704.878 169.088 704.67 172.054C703.827 184.072 694.687 184.519 685.989 184.403C679.363 183.504 676.648 182.229 671.314 178.672C673.136 175.933 674.142 174.9 676.48 172.667C681.32 175.049 691.885 180.367 695.302 173.464C694.064 168.907 683.768 167.945 679.151 165.174C671.732 160.72 670.142 151.887 677.179 146.109C679.613 144.112 684.348 143.42 687.677 143.012Z" fill="#F37A20"/>
<path d="M447 143.33C456.914 143.444 467.039 143.362 476.968 143.372C476.979 146.02 477.005 148.669 477.049 151.317L456.096 151.341L456.265 160.82C459.369 160.768 472.975 160.248 475.075 161.245L475.231 162.238L475.216 168.884L456.151 169.042L456.128 184.34L447.103 184.376C447.151 170.694 447.116 157.012 447 143.33Z" fill="#F37A20"/>
<path d="M873.053 42.9803C878.812 41.3053 884.101 39.7963 889.944 38.4053C890.272 49.9823 889.774 62.1843 889.918 73.9123C889.892 85.9233 890.724 98.2583 889.526 110.21C886.467 140.723 842.538 141.206 822.143 129.624C824.155 126.045 825.214 124.652 827.848 121.638C830.796 120.34 838.182 124.257 842.302 124.832C848.692 125.725 856.252 126.516 861.759 122.424C867.783 117.948 867.947 112.643 868.94 106.154C856.709 114.314 840.911 114.852 829.062 105.529C813.871 93.5772 813.442 66.1042 825.708 51.9272C833.655 42.7422 842.326 39.8103 854.137 38.7953C861.161 39.1733 866.438 40.7973 873.053 42.9803ZM855.378 101.612C871.403 98.5412 868.724 89.4583 868.838 76.6393C868.942 65.0533 869.284 47.6952 852.46 48.6902C832.975 53.2182 835.31 98.9452 855.378 101.612Z" fill="white"/>
<path d="M490.391 6.14651C495.687 5.93051 502.463 5.9105 507.692 6.3825C513.638 19.0775 520.77 39.8675 525.851 53.3905C532.82 71.9345 542.228 93.7775 548.143 112.339C515.6 113.203 523.331 115.325 511.787 85.9085L505.825 85.7235C495.021 85.5765 484.04 86.1515 473.254 85.8335C471.176 91.6055 465.139 107.471 462.49 112.349C458.012 112.589 451.619 112.348 447 112.317L475.866 40.9825L484.841 18.8815C486.352 15.1735 488.453 9.49851 490.391 6.14651ZM477.26 74.1135L494.051 74.0915C498.472 74.0375 502.919 74.0245 507.332 73.7965C502.071 61.0555 497.518 47.8385 492.368 35.0065C487.667 48.1695 482.63 61.2095 477.26 74.1135Z" fill="white"/>
<path d="M756.191 6.17265C762.022 6.04065 767.856 6.06166 773.687 6.23766C781.627 27.5187 789.701 48.7496 797.909 69.9296C802.425 81.4696 810.395 100.774 813.875 112.263C807.084 112.39 794.734 112.901 788.377 111.981C786.004 107.825 779.244 90.9326 777.775 85.9606L771.211 85.7617C760.498 85.6877 749.784 85.7436 739.072 85.9276C735.598 94.8246 732.817 103.815 728.342 112.305C724.166 112.668 717.868 112.403 713.525 112.346C715.085 106.825 720.722 93.7496 723.004 87.9976C729.699 70.9266 736.519 53.9056 743.465 36.9346C745.416 32.1166 754.143 9.15065 756.191 6.17265ZM743.461 74.1486L759.165 74.0927L773.243 74.1156C771.845 70.4866 759.454 36.8906 758.409 35.9206C753.532 48.5466 748.613 61.6716 743.461 74.1486Z" fill="white"/>
<path d="M994.253 37.6913C1015.36 34.8943 1034.75 49.6742 1037.66 70.7632C1040.56 91.8532 1025.88 111.325 1004.81 114.335C983.581 117.367 963.939 102.557 961.014 81.3173C958.089 60.0763 972.998 40.5093 994.253 37.6913ZM1003.66 103.568C1008.04 102.162 1010.87 100.108 1012.75 95.7003C1019.03 80.9823 1016.78 47.7373 994.899 48.7703C990.597 50.3243 987.427 52.2553 985.761 56.8223C980.391 71.5393 981.758 104.7 1003.66 103.568Z" fill="white"/>
<path d="M647.973 38.8176C662.175 37.8396 684.703 47.5726 677.797 66.5356C674.956 74.3346 644.72 80.2926 635.245 82.6586C646.47 116.629 673.229 94.4636 677.574 95.7336L678.123 96.9276C676.315 107.558 666.476 111.272 656.921 113.031C646.315 114.983 634.412 112.023 625.751 105.61C609.572 93.6286 609.117 67.4736 621.395 52.5586C628.454 43.9086 637.097 40.1276 647.973 38.8176ZM635.085 73.0176C638.873 71.8436 641.698 71.1006 645.569 70.2286C649.447 69.4236 655.156 68.6376 657.073 64.8686C661.399 56.3636 656.702 48.3986 647.279 48.7106C636.414 52.5746 635.193 62.7596 635.085 73.0176Z" fill="white"/>
<path d="M584.503 38.8356C590.683 38.4836 602.136 40.9515 605.42 46.7915C608.471 52.2175 604.654 61.3006 598.167 61.9886C597.257 62.0846 594.662 54.8936 594.008 54.0206C587.12 44.1456 576.909 48.8425 573.418 58.7945C572.433 61.6015 571.71 64.0605 571.449 67.0865C570.4 79.2545 572.201 96.4406 585.684 101.137C592.757 103.6 599.943 99.5325 606.014 96.4845C607.041 96.6965 606.544 96.5166 607.411 97.3506C608.682 106.82 596.802 112.068 589.014 113.07C552.456 117.772 537.825 78.3846 558.076 51.8476C564.697 43.1706 573.821 39.8966 584.503 38.8356Z" fill="white"/>
<path d="M946.86 39.2116C963.721 37.7746 958.811 52.1237 950.758 60.2747C946.948 56.6597 943.37 53.7906 938.053 55.8856C926.193 60.8276 929.266 70.0436 928.646 79.3066C928.224 85.6186 930.175 106.995 928.233 111.46C926.262 113.052 916.58 112.44 913.575 112.401L907.758 112.086C907.838 89.3586 908.479 62.7156 907.649 40.2806C920.08 39.7606 926.359 37.4996 931.901 50.4006C936.947 44.8476 939.349 41.5246 946.86 39.2116Z" fill="white"/>
<path d="M293.805 107.788C326.108 106.973 354.084 108.241 385.632 116.368C388.404 117.082 398.253 118.816 400.049 120.36C397.012 120.587 386.879 119.239 383.022 119.239C371.897 119.238 359.04 118.48 348.042 119.246C293.441 123.048 240.147 136.753 190.258 159.201C182.321 162.772 172.567 166.862 165.207 171.068C160.69 170.048 153.088 167.34 148.483 165.839C138.735 162.606 128.947 159.493 119.122 156.499C79.279 144.095 41.342 141.388 0 142.481C37.548 125.089 87.437 123.763 128.142 127.047C139.173 127.937 151.43 130.432 161.998 130.586C164.122 130.617 176.923 126.708 179.736 125.917C188.573 123.388 197.48 121.115 206.448 119.101C237.278 111.954 262.579 109.339 293.805 107.788Z" fill="white"/>
<path d="M218.946 62.9623C223.691 58.4913 227.996 54.7303 233.69 51.4893C274.183 28.4463 323.071 52.7643 324.79 100.524C284.423 99.1583 251.569 100.896 211.503 109.411C211.445 98.2753 211.272 86.1093 211.529 75.0183C215.059 76.2953 221.88 77.7793 225.738 78.7393C223.978 73.8143 221.098 67.9113 218.946 62.9623Z" fill="#F37A20"/>
<path d="M75.214 36.4714C106.115 27.6124 137.928 16.6574 168.687 7.15137C177.596 12.8914 200.705 31.7804 208.077 39.8354C209.236 41.1014 217.305 59.4434 218.946 62.9624C221.098 67.9114 223.978 73.8144 225.738 78.7394C221.88 77.7794 215.059 76.2954 211.529 75.0184C210.768 69.0434 201.19 47.4724 197.362 42.7294C189.74 33.2834 176.197 24.2914 167.279 15.3534L166.839 14.9054C161.962 17.6744 141.002 31.0534 138.35 34.7534C133.491 41.5324 125.983 56.8244 121.474 64.8654C115.85 67.1794 97.427 70.8224 90.521 72.2824L39.603 83.0974C49.372 68.9834 64.31 49.9484 75.214 36.4714Z" fill="white"/>
<path d="M365.331 128.331C383.556 127.936 405.898 129.485 423.756 133.357C357.183 136.57 292.011 153.631 232.404 183.451C227.213 186.143 221.927 188.645 216.555 190.954C207.125 187.766 190.709 181.223 181.619 177.286C193.724 170.141 208.929 163.979 221.949 158.745C271.323 138.896 312.451 129.994 365.331 128.331Z" fill="#F37A20"/>
<path d="M118.091 71.2202C118.667 71.0992 119.256 71.1052 119.856 71.0732C120.795 73.0212 120.404 113.502 120.228 118.219C100.114 117.798 72.719 119.481 53.139 122.132C51.895 122.343 51.753 122.32 50.482 122.262C49.291 117.512 50.02 91.6063 49.836 85.0283C71.501 81.1413 96.38 75.6742 118.091 71.2202Z" fill="white"/>
<path d="M148.669 82.9629C161.113 82.8729 173.558 82.9149 186.001 83.0909C185.668 88.8619 186.332 113.206 185.177 116.592L184.013 116.878C172.209 116.698 160.341 116.991 148.543 116.719C148.789 105.663 148.654 94.0649 148.669 82.9629Z" fill="white"/>
<path d="M155.451 40.7871C163.21 40.9311 170.97 41.0131 178.731 41.0331C178.597 49.0691 178.731 57.5601 178.85 65.6161C176.786 66.2561 158.886 65.6571 155.57 65.5881C155.649 57.3211 155.61 49.0531 155.451 40.7871Z" fill="white"/>
<path d="M297.549 4.39697C301.114 5.79097 303.136 6.81197 306.531 8.62997C302.054 17.771 297.477 26.863 292.803 35.905C291.958 37.392 291.799 38.098 290.159 38.407C288.266 37.552 288.109 37.87 287.262 36.429C288.322 30.06 295.075 11.114 297.549 4.39697Z" fill="#F37A20"/>
<path d="M261.447 0.260175C262.697 0.0261749 264.122 -0.232821 265.061 0.377179C265.815 9.17718 266.004 22.7892 265.374 31.8272C265.278 33.2152 264.793 33.2262 263.878 33.7782C262.197 33.6572 262.935 33.9262 261.573 32.9672L255.16 1.04118L261.447 0.260175Z" fill="#F37A20"/>
<path d="M331.11 29.9761C332.963 31.5061 335.106 36.0691 336.121 38.3231C328.68 43.3371 321.29 48.4271 313.953 53.5911L312.734 53.8551C311.087 52.9401 310.494 51.6381 309.447 50.0331C315.117 44.1121 324.938 35.3931 331.11 29.9761Z" fill="#F37A20"/>
<path d="M344.619 63.7061C345.342 64.6131 345.727 70.429 345.87 71.886C339.656 72.187 332.956 72.8121 326.7 73.2591L326.443 73.1391C325.442 71.4451 325.684 72.3771 326.013 70.1811C328.383 67.9361 340.938 64.6871 344.619 63.7061Z" fill="#F37A20"/>
<path d="M234.025 21.4243C236.336 23.0573 243.886 35.3373 243.288 38.1663L242.096 38.8353L240.802 38.4423C236.56 34.1443 232.028 30.3333 228.045 25.7663L234.025 21.4243Z" fill="#F37A20"/>
</svg>
